<mxfile host="app.diagrams.net" modified="2023-04-08T10:51:52.645Z" agent="5.0 (X11; Linux x86_64) AppleWebKit/537.36 (KHTML, like Gecko) Chrome/107.0.0.0 Safari/537.36" etag="irrO4PmRVpqkTgrasYHH" version="20.5.3" type="github">
  <diagram id="C5RBs43oDa-KdzZeNtuy" name="Page-1">
    <mxGraphModel dx="1540" dy="1933" grid="1" gridSize="10" guides="1" tooltips="1" connect="1" arrows="1" fold="1" page="1" pageScale="1" pageWidth="827" pageHeight="1169" math="0" shadow="0">
      <root>
        <mxCell id="WIyWlLk6GJQsqaUBKTNV-0" />
        <mxCell id="WIyWlLk6GJQsqaUBKTNV-1" parent="WIyWlLk6GJQsqaUBKTNV-0" />
        <mxCell id="oxAXRhUPU-nRe5CdtGqO-5" value="wohnt" style="rhombus;whiteSpace=wrap;html=1;fontSize=12;" parent="WIyWlLk6GJQsqaUBKTNV-1" vertex="1">
          <mxGeometry x="274" y="280" width="126" height="50" as="geometry" />
        </mxCell>
        <mxCell id="UyaqefDPUZYXlSPB02nK-0" value="pflegt" style="rhombus;whiteSpace=wrap;html=1;fontSize=12;" vertex="1" parent="WIyWlLk6GJQsqaUBKTNV-1">
          <mxGeometry x="210" y="340" width="126" height="50" as="geometry" />
        </mxCell>
        <mxCell id="UyaqefDPUZYXlSPB02nK-1" value="einnimmt" style="rhombus;whiteSpace=wrap;html=1;fontSize=12;" vertex="1" parent="WIyWlLk6GJQsqaUBKTNV-1">
          <mxGeometry x="351" y="330" width="126" height="50" as="geometry" />
        </mxCell>
        <mxCell id="UyaqefDPUZYXlSPB02nK-2" value="hinweist" style="rhombus;whiteSpace=wrap;html=1;fontSize=12;" vertex="1" parent="WIyWlLk6GJQsqaUBKTNV-1">
          <mxGeometry x="316" y="420" width="126" height="50" as="geometry" />
        </mxCell>
        <mxCell id="UyaqefDPUZYXlSPB02nK-3" value="mitfÃ¼hrt" style="rhombus;whiteSpace=wrap;html=1;fontSize=12;" vertex="1" parent="WIyWlLk6GJQsqaUBKTNV-1">
          <mxGeometry x="190" y="460" width="126" height="50" as="geometry" />
        </mxCell>
        <mxCell id="UyaqefDPUZYXlSPB02nK-5" value="stationiert" style="rhombus;whiteSpace=wrap;html=1;fontSize=12;" vertex="1" parent="WIyWlLk6GJQsqaUBKTNV-1">
          <mxGeometry x="316" y="510" width="126" height="50" as="geometry" />
        </mxCell>
        <mxCell id="UyaqefDPUZYXlSPB02nK-6" value="Schiffe" style="rounded=0;whiteSpace=wrap;html=1;" vertex="1" parent="WIyWlLk6GJQsqaUBKTNV-1">
          <mxGeometry x="150" width="100" height="50" as="geometry" />
        </mxCell>
        <mxCell id="UyaqefDPUZYXlSPB02nK-7" value="Papageien" style="rounded=0;whiteSpace=wrap;html=1;" vertex="1" parent="WIyWlLk6GJQsqaUBKTNV-1">
          <mxGeometry x="500" y="-30" width="100" height="50" as="geometry" />
        </mxCell>
        <mxCell id="UyaqefDPUZYXlSPB02nK-8" value="PiratInnen" style="rounded=0;whiteSpace=wrap;html=1;" vertex="1" parent="WIyWlLk6GJQsqaUBKTNV-1">
          <mxGeometry x="414" y="170" width="100" height="50" as="geometry" />
        </mxCell>
        <mxCell id="UyaqefDPUZYXlSPB02nK-9" value="Rumsorten" style="rounded=0;whiteSpace=wrap;html=1;" vertex="1" parent="WIyWlLk6GJQsqaUBKTNV-1">
          <mxGeometry x="88" y="500" width="100" height="50" as="geometry" />
        </mxCell>
        <mxCell id="UyaqefDPUZYXlSPB02nK-10" value="Inseln" style="rounded=0;whiteSpace=wrap;html=1;" vertex="1" parent="WIyWlLk6GJQsqaUBKTNV-1">
          <mxGeometry x="470" y="280" width="100" height="50" as="geometry" />
        </mxCell>
        <mxCell id="UyaqefDPUZYXlSPB02nK-11" value="Geisterschiffe" style="rounded=0;whiteSpace=wrap;html=1;" vertex="1" parent="WIyWlLk6GJQsqaUBKTNV-1">
          <mxGeometry x="-33" y="50" width="114" height="50" as="geometry" />
        </mxCell>
        <mxCell id="UyaqefDPUZYXlSPB02nK-12" value="Schatzinseln" style="rounded=0;whiteSpace=wrap;html=1;" vertex="1" parent="WIyWlLk6GJQsqaUBKTNV-1">
          <mxGeometry x="88" y="280" width="114" height="50" as="geometry" />
        </mxCell>
        <mxCell id="UyaqefDPUZYXlSPB02nK-13" value="Basisinseln" style="rounded=0;whiteSpace=wrap;html=1;" vertex="1" parent="WIyWlLk6GJQsqaUBKTNV-1">
          <mxGeometry x="81" y="360" width="109" height="50" as="geometry" />
        </mxCell>
        <mxCell id="UyaqefDPUZYXlSPB02nK-14" value="Positionen" style="rounded=0;whiteSpace=wrap;html=1;" vertex="1" parent="WIyWlLk6GJQsqaUBKTNV-1">
          <mxGeometry x="540" y="90" width="100" height="50" as="geometry" />
        </mxCell>
        <mxCell id="UyaqefDPUZYXlSPB02nK-16" value="Name" style="ellipse;whiteSpace=wrap;html=1;fontStyle=4" vertex="1" parent="WIyWlLk6GJQsqaUBKTNV-1">
          <mxGeometry x="30" y="-90" width="99" height="50" as="geometry" />
        </mxCell>
        <mxCell id="UyaqefDPUZYXlSPB02nK-17" value="Segel" style="ellipse;whiteSpace=wrap;html=1;" vertex="1" parent="WIyWlLk6GJQsqaUBKTNV-1">
          <mxGeometry x="160" y="-90" width="99" height="50" as="geometry" />
        </mxCell>
        <mxCell id="UyaqefDPUZYXlSPB02nK-18" value="Tiefe" style="ellipse;whiteSpace=wrap;html=1;" vertex="1" parent="WIyWlLk6GJQsqaUBKTNV-1">
          <mxGeometry x="287.5" y="-90" width="99" height="50" as="geometry" />
        </mxCell>
        <mxCell id="UyaqefDPUZYXlSPB02nK-19" value="Geister" style="ellipse;whiteSpace=wrap;html=1;" vertex="1" parent="WIyWlLk6GJQsqaUBKTNV-1">
          <mxGeometry x="-150" y="-10" width="99" height="50" as="geometry" />
        </mxCell>
        <mxCell id="UyaqefDPUZYXlSPB02nK-20" value="Geisterstunde" style="ellipse;whiteSpace=wrap;html=1;" vertex="1" parent="WIyWlLk6GJQsqaUBKTNV-1">
          <mxGeometry x="-150" y="100" width="99" height="50" as="geometry" />
        </mxCell>
        <mxCell id="UyaqefDPUZYXlSPB02nK-21" value="" style="endArrow=none;html=1;rounded=0;" edge="1" parent="WIyWlLk6GJQsqaUBKTNV-1" source="UyaqefDPUZYXlSPB02nK-19" target="UyaqefDPUZYXlSPB02nK-11">
          <mxGeometry width="50" height="50" relative="1" as="geometry">
            <mxPoint x="110" y="320" as="sourcePoint" />
            <mxPoint x="160" y="270" as="targetPoint" />
          </mxGeometry>
        </mxCell>
        <mxCell id="UyaqefDPUZYXlSPB02nK-22" value="" style="endArrow=none;html=1;rounded=0;" edge="1" parent="WIyWlLk6GJQsqaUBKTNV-1" source="UyaqefDPUZYXlSPB02nK-11">
          <mxGeometry width="50" height="50" relative="1" as="geometry">
            <mxPoint x="-110" y="160" as="sourcePoint" />
            <mxPoint x="-60" y="110" as="targetPoint" />
          </mxGeometry>
        </mxCell>
      </root>
    </mxGraphModel>
  </diagram>
</mxfile>
